<svg width="582" height="454" fill="none" xmlns="http://www.w3.org/2000/svg">
  <path d="M259.5 106.7v334.2c0 3.4 1.4 6.7 3.7 9 2.4 2.4 5.6 3.8 8.9 3.8h80.5c3.3 0 6.5-1.4 8.9-3.7 2.3-2.4 3.6-5.7 3.7-9V388a19.3 19.3 0 0 1 11.7-17.7 18.4 18.4 0 0 1 20.6 4.6l68.2 72.9a18.7 18.7 0 0 0 13.6 6H569a12.4 12.4 0 0 0 11.4-7.7 13 13 0 0 0-2.2-13.8L422.4 258.8a13.5 13.5 0 0 0-9.4-4.4 13.3 13.3 0 0 0-11 4.9l-3.8 4.7a18.7 18.7 0 0 1-20.7 5.5 19.3 19.3 0 0 1-12.3-17.8v-239a12.9 12.9 0 0 0-6.6-11.2 12.3 12.3 0 0 0-12.8.6 510.5 510.5 0 0 1-95.4 52 12.5 12.5 0 0 0-7.3 8.6 13 13 0 0 0 2.4 11.2c8.3 8.9 13.3 20.5 14 32.8Z" fill="url(#a)"/>
  <path d="M511.7 143.3s-47.6 5.6-72.2 67.4c-.5 1.6-.5 3.3.2 4.9a6.3 6.3 0 0 0 6.8 3.7c4.5-.8 9.2-1 13.7-.4a54 54 0 0 1 27.2 11.8l.3.2.4.4a49 49 0 0 0 79.2-25.2 51 51 0 0 0-11-46.8 49.2 49.2 0 0 0-44.6-15.9Z" fill="url(#b)"/>
  <path d="M232.3 336.5a10.4 10.4 0 0 0 8.4-7 10.8 10.8 0 0 0-2.3-10.8l.3-.2-52.6-56.3a18.7 18.7 0 0 0-27.6.3L2.7 436a10.7 10.7 0 0 0 7.8 17.8h98a10.3 10.3 0 0 0 7.5-3.2l51-55 44.6-47.8 3.2-3.4c5-4.2 11-7 17.5-7.9Z" fill="url(#c)"/>
  <defs>
    <linearGradient id="a" x1="198.9" y1="219.4" x2="608.8" y2="220.4" gradientUnits="userSpaceOnUse">
      <stop stop-color="#FFA722"/>
      <stop offset="1" stop-color="#FF713A"/>
      <stop offset="1" stop-color="#FF713A"/>
    </linearGradient>
    <linearGradient id="b" x1="422.3" y1="191.3" x2="579.5" y2="191.9" gradientUnits="userSpaceOnUse">
      <stop stop-color="#FFA722"/>
      <stop offset="1" stop-color="#FF713A"/>
      <stop offset="1" stop-color="#FF713A"/>
    </linearGradient>
    <linearGradient id="c" x1="-31.2" y1="351.8" x2="260.7" y2="352.9" gradientUnits="userSpaceOnUse">
      <stop stop-color="#FFA722"/>
      <stop offset="1" stop-color="#FF713A"/>
      <stop offset="1" stop-color="#FF713A"/>
    </linearGradient>
  </defs>
</svg>
